<svg width="24" height="24" viewBox="0 0 24 24" fill="none" xmlns="http://www.w3.org/2000/svg">
<g id="Right icon colored">
<path id="Union" fill-rule="evenodd" clip-rule="evenodd" d="M15.8491 2.70711C17.0207 1.53554 18.9202 1.53554 20.0918 2.70711L20.7989 3.41422C21.9704 4.58579 21.9704 6.48528 20.7989 7.65686L8.47655 19.9792C8.07897 20.3768 7.57766 20.6546 7.0298 20.781L3.77203 21.5328C2.69192 21.7821 1.72389 20.8141 1.97315 19.734L2.72495 16.4762C2.85137 15.9283 3.12922 15.427 3.5268 15.0294L15.8491 2.70711ZM17.2633 8.36396L15.142 6.24264L4.94101 16.4437C4.80849 16.5762 4.71587 16.7433 4.67373 16.9259L4.10182 19.4042L6.58008 18.8323C6.7627 18.7901 6.92981 18.6975 7.06233 18.565L17.2633 8.36396Z" fill="#ABBCD1"/>
</g>
</svg>
